HIERARCHY
ROOT hip
{
	OFFSET 0.000000 0.000000 0.000000 
	CHANNELS 6 Xposition Yposition Zposition Xrotation Yrotation Zrotation
	JOINT abdomen
	{
		OFFSET 0.000000 3.402643 0.000000 
		CHANNELS 3 Xrotation Yrotation Zrotation
		JOINT chest
		{
			OFFSET 0.000000 8.438565 -0.680529 
			CHANNELS 3 Xrotation Yrotation Zrotation
			JOINT neck
			{
				OFFSET 0.000000 9.885400 -0.272212 
				CHANNELS 3 Xrotation Yrotation Zrotation
				JOINT head
				{
					OFFSET 0.000000 3.130431 0.000000 
					CHANNELS 3 Xrotation Yrotation Zrotation
					End Site
					{
						OFFSET 0.000000 3.039250 0.000000 
					}
				}
			}
			JOINT rCollar
			{
				OFFSET -3.238290 6.669187 -0.816635 
				CHANNELS 3 Xrotation Yrotation Zrotation
				JOINT rShldr
				{
					OFFSET -2.515050 0.000000 0.000000 
					CHANNELS 3 Xrotation Yrotation Zrotation
					JOINT rForeArm
					{
						OFFSET -11.517700 0.000000 0.000000 
						CHANNELS 3 Xrotation Yrotation Zrotation
						JOINT rHand
						{
							OFFSET -9.026700 0.000000 0.000000 
							CHANNELS 3 Xrotation Yrotation Zrotation
							End Site
							{
								OFFSET -4.028470 0.000000 0.000000 
							}
						}
					}
				}
			}
			JOINT lCollar
			{
				OFFSET 3.238290 6.669187 -0.816635 
				CHANNELS 3 Xrotation Yrotation Zrotation
				JOINT lShldr
				{
					OFFSET 2.515050 0.000000 0.000000 
					CHANNELS 3 Xrotation Yrotation Zrotation
					JOINT lForeArm
					{
						OFFSET 11.517700 0.000000 0.000000 
						CHANNELS 3 Xrotation Yrotation Zrotation
						JOINT lHand
						{
							OFFSET 9.026700 0.000000 0.000000 
							CHANNELS 3 Xrotation Yrotation Zrotation
							End Site
							{
								OFFSET 4.028470 0.000000 0.000000 
							}
						}
					}
				}
			}
		}
	}
	JOINT rThigh
	{
		OFFSET -4.983750 -1.633274 1.361059 
		CHANNELS 3 Xrotation Yrotation Zrotation
		JOINT rShin
		{
			OFFSET 2.041588 -20.007561 0.000000 
			CHANNELS 3 Xrotation Yrotation Zrotation
			JOINT rFoot
			{
				OFFSET 0.000000 -19.190928 -1.224953 
				CHANNELS 3 Xrotation Yrotation Zrotation
				End Site
				{
					OFFSET 0.000000 -2.449906 4.627600 
				}
			}
		}
	}
	JOINT lThigh
	{
		OFFSET 4.983750 -1.633274 1.361059 
		CHANNELS 3 Xrotation Yrotation Zrotation
		JOINT lShin
		{
			OFFSET -2.041588 -20.007561 0.000000 
			CHANNELS 3 Xrotation Yrotation Zrotation
			JOINT lFoot
			{
				OFFSET 0.000000 -19.190928 -1.224953 
				CHANNELS 3 Xrotation Yrotation Zrotation
				End Site
				{
					OFFSET 0.000000 -2.449906 4.627600 
				}
			}
		}
	}
}
MOTION
Frames: 8
Frame Time: 0.050000
0.828575 42.762325 0.239063 -4.271156 6.612813 -2.250795 5.881332 2.383835 -0.415960 19.752964 7.749616 -2.349632 0.000001 0.000001 0.000000 0.000001 0.000001 -0.000001 0.000000 -0.000003 0.000003 -50.257641 26.860725 48.318253 2.559289 55.808689 -1.397541 0.000000 -0.000000 0.000000 -0.000001 -0.000001 0.000001 -37.054760 -15.124860 -49.713009 3.027207 -59.246105 1.812017 -0.000000 -0.000000 0.000000 -13.936478 -1.461094 -6.976274 22.431480 0.191388 -0.062656 -7.872250 -2.319011 -1.070505 -0.975349 0.124034 14.688724 15.268572 -0.133571 0.033490 -4.957349 -2.322731 -0.948031 
0.615771 42.700108 0.175582 -3.912707 8.553881 -1.258857 5.822392 2.414909 -0.505331 19.603767 7.801821 -2.614541 0.000001 0.000002 -0.000001 -0.000002 -0.000004 0.000001 0.000000 0.000000 0.000001 -50.983280 26.919628 50.251423 2.261528 52.539974 -1.152567 0.000004 -0.000000 0.000001 -0.000001 0.000001 -0.000001 -36.358883 -15.378980 -48.528496 3.319070 -61.301815 2.071771 -0.000001 0.000001 -0.000001 -15.097461 -2.493226 -7.945929 24.107227 0.204386 -0.070431 -9.376620 -2.164016 -1.077357 -2.100889 -0.780736 14.173277 15.431643 -0.134937 0.034047 -3.798453 -2.545730 -1.017742 
0.471235 42.629768 0.091275 -3.424229 10.716972 0.249574 5.791255 2.461306 -0.557587 19.507370 7.921891 -2.804595 -0.000002 -0.000000 0.000000 -0.000001 -0.000002 0.000000 -0.000003 -0.000003 0.000003 -51.016178 26.166735 51.000465 2.249035 52.375523 -1.142779 -0.000001 -0.000000 -0.000001 -0.000001 -0.000002 0.000001 -36.535568 -16.797359 -47.817646 2.961238 -59.239262 1.745509 0.000004 -0.000001 0.000003 -16.585594 -3.249948 -9.563420 26.108444 0.219732 -0.079990 -10.979650 -2.779834 -1.532344 -3.487750 -1.618411 12.944410 15.643285 -0.136704 0.034765 -2.481164 -3.044400 -1.126475 
0.412975 42.578472 0.027616 -3.052794 12.039082 1.481137 5.737540 2.521154 -0.580780 19.333263 8.101527 -2.900008 -0.000000 -0.000000 0.000000 -0.000000 -0.000000 0.000000 -0.000002 -0.000003 0.000002 -51.558254 25.792940 52.418873 2.108287 50.587055 -1.031423 -0.000001 -0.000000 0.000001 -0.000002 -0.000001 0.000002 -36.149281 -17.209780 -46.588196 3.351843 -62.082413 2.091693 0.000006 -0.000002 -0.000002 -18.010645 -3.844707 -10.972575 27.964798 0.233880 -0.088974 -12.012198 -2.584934 -1.500125 -4.326635 -2.280843 11.850383 15.675097 -0.136966 0.034882 -1.835749 -2.669524 -0.932321 
0.316573 42.554131 0.001623 -2.877276 12.726863 1.407133 5.633392 2.575423 -0.568278 18.983677 8.282049 -2.866629 -0.000001 -0.000000 0.000000 -0.000001 -0.000001 0.000000 -0.000002 -0.000003 0.000003 -51.918564 25.123325 54.294884 1.879823 47.348309 -0.857062 0.000001 -0.000003 -0.000002 -0.000002 -0.000001 0.000002 -35.250557 -16.779362 -45.143879 3.981529 -65.958672 2.661361 -0.000000 -0.000000 0.000000 -18.807438 -4.578236 -10.841357 29.146605 0.243024 -0.094469 -12.220443 -2.385641 -1.319039 -4.713032 -2.862689 12.208487 15.779299 -0.137836 0.035242 -1.661314 -2.440000 -0.851034 
0.230175 42.522724 -0.054327 -2.513583 14.173532 1.170417 5.487613 2.599967 -0.546041 18.488279 8.373240 -2.783035 -0.000002 0.000000 0.000000 0.000000 0.000000 0.000000 -0.000004 -0.000003 0.000002 -50.970901 23.143410 55.185421 1.879941 47.307259 -0.857947 -0.000001 0.000004 0.000002 -0.000002 -0.000001 0.000002 -35.199032 -17.424641 -44.336090 4.489383 -68.754356 3.126025 0.000000 -0.000002 0.000000 -19.455820 -5.166994 -10.599760 30.014120 0.249858 -0.098293 -12.456767 -2.947978 -1.669853 -5.695405 -3.454609 12.686140 16.053120 -0.140123 0.036184 -1.350647 -3.223332 -1.081653 
0.260435 42.502876 -0.062242 -2.511336 14.384100 1.394578 5.494656 2.549547 -0.387680 18.480150 8.266635 -2.239846 0.000002 -0.000002 0.000001 0.000001 0.000000 0.000000 0.000000 -0.000003 0.000002 -49.639992 21.891600 55.480598 1.851328 46.872299 -0.836692 -0.000001 0.000001 -0.000001 0.000000 -0.000003 0.000002 -35.850231 -18.297689 -44.823551 4.548462 -69.004143 3.181307 -0.000001 0.000010 0.000001 -19.370371 -4.767647 -10.920230 30.088970 0.250407 -0.098701 -12.912553 -3.109933 -1.782632 -5.779803 -3.277835 12.360270 15.979240 -0.139508 0.035923 -1.333883 -3.581402 -1.230034 
0.335614 42.497150 -0.098652 -2.612746 13.579473 1.593634 5.555853 2.510791 -0.265110 18.661289 8.182049 -1.828784 0.000000 0.000002 0.000000 -0.000001 -0.000004 0.000001 0.000000 0.000000 0.000001 -49.479328 21.698570 56.160629 1.775071 45.676708 -0.780768 -0.000001 0.000001 0.000001 0.000000 0.000001 0.000002 -36.443729 -18.868919 -44.863979 4.422698 -68.465340 3.063735 0.000000 -0.000002 0.000000 -19.431419 -4.198991 -11.215290 30.164480 0.250951 -0.099109 -12.462111 -2.019482 -1.115400 -5.507287 -3.008748 11.984460 16.051611 -0.140119 0.036169 -1.819952 -3.234656 -1.131126 
